<svg height="512pt" viewBox="-6 0 512 512.0005" width="512pt" xmlns="http://www.w3.org/2000/svg"><path d="m500.757812 261.621094c0 131.261718-101.007812 238.933594-229.535156 249.523437-6.871094.566407-34.8125.566407-41.6875 0-128.527344-10.589843-229.535156-118.261719-229.535156-249.523437 0-138.28125 112.097656-250.378906 250.378906-250.378906s250.378906 112.097656 250.378906 250.378906zm0 0" fill="#0ed1b2"/><path d="m240.621094 173.734375h-73.019532c-8.710937 0-15.726562-7.269531-15.3125-16.070313.386719-8.246093 7.492188-14.589843 15.746094-14.589843h8.753906c1.132813 0 5.289063-.382813 1.285157-3.703125-3.183594-2.640625-5.1875-6.621094-5.351563-11.039063-.332031-8.75 7.003906-15.917969 15.757813-15.917969h6.722656c1.59375 0 8.761719.085938 2.136719-4.820312-3.203125-2.375-4.367188-6.855469-4.175782-11.207031.371094-8.261719 7.488282-14.628907 15.761719-14.628907h31.695313zm0 0" fill="#fde5bd"/><path d="m333.15625 173.734375h-141.539062c-8.710938 0-15.726563-7.269531-15.3125-16.070313.390624-8.246093 7.492187-14.589843 15.746093-14.589843h8.753907c6.972656 0-4.066407-4.597657-4.066407-14.742188 0-8.753906 7.003907-15.917969 15.757813-15.917969h6.722656c8.679688 0-2.035156-3.382812-2.035156-16.023437 0-8.273437 7.484375-14.632813 15.757812-14.632813h58.894532c8.269531 0 15.390624 6.367188 15.757812 14.632813.195312 4.347656-1.25 8.585937-4.070312 11.40625-5.011719 5.007813 8.757812 4.617187 8.757812 4.617187 8.753906 0 16.089844 7.167969 15.757812 15.917969-.167968 4.417969-2.167968 8.402344-5.355468 11.039063-4.472656 3.703125 10.042968 3.703125 10.042968 3.703125 8.253907 0 15.355469 6.34375 15.742188 14.589843.414062 8.800782-6.601562 16.070313-15.3125 16.070313zm0 0" fill="#fff5f5"/><path d="m284.25 17.707031s-25.4375 14.484375-24.855469 44.625c.109375 5.792969-18.773437 5.117188-18.773437 1.773438 0-41.109375 34.601562-62.953125 34.601562-62.953125 4.570313-2.492188 10.296875-.808594 12.789063 3.765625 2.492187 4.570312.808593 10.296875-3.761719 12.789062zm0 0" fill="#86523e"/><path d="m281.039062 71.539062c-.808593 17.582032-14.832031 31.734376-32.679687 30.59375-15.4375-.992187-28.140625-13.671874-28.605469-29.132812-.542968-18.070312 12.652344-24.558594 25.359375-22.351562 1.710938.296874 3.46875.449218 5.265625.449218 1.792969 0 3.542969-.152344 5.25-.449218 13.039063-2.253907 26.046875 6.964843 25.410156 20.890624zm0 0" fill="#e43950"/><path d="m281.019531 71.539062c-.230469 4.9375-1.5 9.609376-3.605469 13.746094-4.515624 2.222656-9.671874 3.339844-15.195312 2.984375-15.4375-.988281-28.136719-13.667969-28.605469-29.132812-.089843-3.058594.21875-5.78125.847657-8.191407 3.363281-.847656 7.015624-.925781 10.628906-.296874 1.710937.296874 3.472656.449218 5.269531.449218 1.789063 0 3.542969-.152344 5.25-.449218 13.039063-2.253907 26.046875 6.964843 25.410156 20.890624zm0 0" fill="#ea5569"/><path d="m389.9375 173.242188c.832031 17.019531 1.257812 41.992187 1.257812 54.472656 0 50.304687-6.925781 83.027344-19.285156 119.226562-8.941406 26.191406-24.773437 47.285156-45.375 63.820313-32.324218 25.945312-52.328125 61.863281-55.3125 100.382812-6.875.566407-13.824218.855469-20.84375.855469-7.019531 0-13.96875-.289062-20.84375-.855469-2.980468-38.519531-22.988281-74.441406-55.3125-100.386719-20.597656-16.53125-36.429687-37.625-45.375-63.816406-12.355468-36.199218-19.285156-68.925781-19.285156-119.230468 0-12.476563.429688-37.449219 1.257812-54.46875.269532-5.449219 4.753907-9.730469 10.210938-9.730469h258.695312c5.457032 0 9.945313 4.28125 10.210938 9.730469zm0 0" fill="#d9e7ec"/><path d="m371.910156 346.941406c-1.753906 5.128906-3.777344 10.054688-6.039062 14.792969-22.378906 23.09375-50.367188 36.828125-80.746094 36.828125-73.371094 0-112.414062-80.070312-112.414062-178.839844 0-19.636718 2.359374-38.53125 6.703124-56.210937h200.3125c5.457032 0 9.945313 4.285156 10.210938 9.730469.832031 17.019531 1.257812 41.992187 1.257812 54.472656 0 50.300781-6.925781 83.027344-19.285156 119.226562zm0 0" fill="#fff5f5"/><path d="m334.726562 346.25c-11.117187 37.1875-45.527343 62.53125-84.347656 62.53125-38.816406 0-73.230468-25.34375-84.347656-62.53125-8.097656-27.082031-14.585938-57.046875-14.585938-77.515625 0-8.109375.203126-23.082031.617188-36.183594.035156-1.101562.9375-1.972656 2.042969-1.972656h192.550781c1.101562 0 2.007812.871094 2.042969 1.972656.410156 13.101563.617187 28.074219.617187 36.183594 0 20.46875-6.492187 50.433594-14.589844 77.515625zm0 0" fill="#fd8e82"/><path d="m292.09375 398.3125c-12.542969 6.714844-26.796875 10.46875-41.714844 10.46875-38.816406 0-73.230468-25.34375-84.347656-62.53125-8.097656-27.082031-14.585938-57.042969-14.585938-77.515625 0-8.109375.203126-23.082031.617188-36.183594.015625-.484375.203125-.914062.496094-1.253906 4.429687 93.375 62.085937 167.265625 132.566406 167.265625 2.339844 0 4.660156-.089844 6.96875-.25zm0 0" fill="#fd7c66"/><path d="m343.902344 205.691406c5.515625 2.382813 9.324218 7.953125 9.179687 14.378906-.1875 8.402344-7.359375 14.980469-15.761719 14.980469h-166.730468c-8.253906 0-3.777344-65.585937-5.882813-71.539062h182.890625c-1.277344 3.613281-3.871094 6.597656-7.199218 8.390625-.363282.195312-2.480469 1.542968.332031 2.136718 7.019531 1.476563 12.355469 7.578126 12.355469 15.023438 0 6.277344-3.78125 11.660156-9.183594 14.027344-.515625.226562-3.3125 1.175781 0 2.601562zm0 0" fill="#f9d19a"/><path d="m188.039062 235.050781h-24.601562c-8.191406 0-15.261719-6.238281-15.738281-14.414062-.402344-6.941407 3.824219-12.945313 9.875-15.242188.65625-.246093 1.085937-.886719 1.085937-1.59375 0-.710937-.4375-1.359375-1.109375-1.601562-5.988281-2.160157-10.183593-7.015625-9.859375-13.878907.332032-7.0625 5.59375-12.714843 12.285156-14.191406.566407-.128906.984376-.605468.984376-1.1875 0-.453125-.257813-.855468-.652344-1.066406-3.304688-1.796875-5.875-4.769531-7.144532-8.363281h24c1.070313 3.019531 4.625 5.605469 6.847657 7.421875 1.265625 1.035156.875 3.035156-.679688 3.535156-6.164062 1.988281-10.621093 7.769531-10.621093 14.59375 0 5.863281 3.296874 10.960938 8.136718 13.539062 1.429688.761719 1.429688 2.816407 0 3.578126-4.839844 2.578124-8.136718 7.675781-8.136718 13.539062 0 8.46875 6.863281 15.332031 15.328124 15.332031zm0 0" fill="#ffbe71"/><path d="m255.164062 76.929688c4.414063 0 8.414063 1.765624 11.34375 4.621093 3.832032-7.289062 11.464844-12.265625 20.269532-12.265625 12.644531 0 22.894531 10.25 22.894531 22.894532 0 12.648437-10.25 22.898437-22.894531 22.898437-8.289063 0-15.527344-4.417969-19.546875-11.015625-2.976563 3.300781-7.273438 5.390625-12.066407 5.390625-8.980468 0-16.261718-7.28125-16.261718-16.261719 0-8.984375 7.28125-16.261718 16.261718-16.261718zm0 0" fill="#fff5f5"/><path d="m218.675781 235.730469c-.351562 5.429687-5.105469 9.539062-10.546875 9.539062h-21.710937c-1.820313 0-3.398438 1.210938-3.921875 2.953125-1.265625 4.207032-5.167969 7.265625-9.785156 7.265625-4.617188 0-8.519532-3.058593-9.789063-7.265625-.523437-1.742187-2.097656-2.953125-3.917969-2.953125h-.601562c-5.867188 0-10.582032-4.945312-10.195313-10.898437.351563-5.433594 5.105469-9.539063 10.546875-9.539063h49.726563c5.867187 0 10.582031 4.945313 10.195312 10.898438zm0 0" fill="#c92e43"/><path d="m352.550781 235.730469c-.351562 5.429687-5.101562 9.539062-10.546875 9.539062h-22.734375c-1.820312 0-3.394531 1.210938-3.917969 2.953125-1.269531 4.207032-5.171874 7.265625-9.789062 7.265625s-8.515625-3.058593-9.785156-7.265625c-.523438-1.742187-2.101563-2.953125-3.917969-2.953125h-27.171875c-2.257812 0-4.089844 1.832031-4.089844 4.089844v16c0 5.441406-4.105468 10.195313-9.539062 10.546875-5.949219.386719-10.898438-4.328125-10.898438-10.195312v-16.351563c0-2.257813-1.832031-4.089844-4.089844-4.089844h-8.175781c-2.253906 0-4.085937 1.832031-4.085937 4.089844v56.878906c0 5.445313-4.105469 10.195313-9.539063 10.546875-5.953125.386719-10.898437-4.328125-10.898437-10.195312v-57.832032c0-1.824218-1.222656-3.394531-2.96875-3.921874-4.402344-1.335938-7.546875-5.558594-7.230469-10.464844.351563-5.429688 5.105469-9.539063 10.546875-9.539063h138.636719c5.871093 0 10.582031 4.945313 10.195312 10.898438zm0 0" fill="#e43950"/></svg>